<svg xmlns="http://www.w3.org/2000/svg" viewBox="0 0 117.66 117.66"><defs><style>.cls-1{fill:#fff;}.cls-2{fill:#70f4bb;}</style></defs><g id="Layer_2" data-name="Layer 2"><g id="Layer_1-2" data-name="Layer 1"><path class="cls-1" d="M28.47,26.83H56v64H45.86a2,2,0,0,1-2-2V41.12a2,2,0,0,0-2-2H28.47a2,2,0,0,1-2-2V28.8a2,2,0,0,1,2-2"/><path class="cls-1" d="M89.2,90.83H61.7v-64H71.8a2,2,0,0,1,2,2V76.55a2,2,0,0,0,2,2H89.2a2,2,0,0,1,2,2v8.38a2,2,0,0,1-2,2"/><path class="cls-2" d="M58.83,7.88a51,51,0,1,0,51,50.95,51,51,0,0,0-51-50.95m0,109.78A58.83,58.83,0,0,1,17.23,17.23a58.83,58.83,0,0,1,83.2,83.2,58.4,58.4,0,0,1-41.6,17.23"/></g></g></svg>