<svg width="3840" height="2160" version="1.1" viewBox="0 0 1016 571.5" xmlns="http://www.w3.org/2000/svg" xmlns:xlink="http://www.w3.org/1999/xlink"><defs><filter id="d" x="-.031376" y="-.042222" width="1.0628" height="1.0844" style="color-interpolation-filters:sRGB"><feGaussianBlur stdDeviation="5.4740673"/></filter><radialGradient id="a" cx="995.81" cy="-233" r="508" gradientTransform="matrix(-1.72e-5 -.49986 .49816 0 370.29 641.09)" gradientUnits="userSpaceOnUse"><stop stop-color="#23bac2" style="stop-color:#37d6dd" offset="0"/><stop stop-color="#3b6ab9" offset="1"/></radialGradient><clipPath id="e"><path d="m120.56 14.626c-61.366 0.0712-101.89 5.0257-102.07 5.0469-3.7e-4 4e-5 -0.09765 8e-3 -0.09765 8e-3l0.22266 2.6326s223.89-10.666 403.29 61.699c6.2364 27.328 23.949 71.221 33.883 93.273-13.899 9.5704-28.749 19.048-40.824 34.164-12.324 15.428-21.667 36.68-24.172 69.551-5.0387 66.144 51.806 124.21 122.21 126 66.176 3.5222 111.59 4.0133 166.73 32.578 26.085 14.417 50.051 43.79 67.961 79.563 17.912 35.776 29.784 77.929 31.918 117.77l2.6406 0.032c2.3367-29.958-2.1041-76.909-20.219-121.38-16.667-40.915-45.194-79.521-90.5-100.7 64.207 14.176 100.35 44.827 120.26 72.875 21.049 29.654 24.285 55.929 24.336 56.352l-0.0664 0.78139 0.82031 0.39439 2.1875 1.0586-0.28517-2.3984-6e-3 -0.0198c0.0654-0.806 2.4394-31.764-19.238-66.359-21.963-35.051-68.607-73.569-166.72-87.957-24.864-3.646-56.282-6.4472-88.086-6.5273h-0.0199c-77.907 1.0294-117.82-43.652-123.99-89.625-3.0876-22.987 2.3074-46.301 15.719-64.41 13.411-18.109 34.812-31.063 64.02-33.344h8e-3c48.222-3.9765 106.32 22.043 163.26 48.535-0.153 6.8099 0.2658 13.285 4.9883 19.184 2.7017 3.3749 8.3982 6.3068 14.219 9.0547 5.8205 2.7478 11.792 5.202 14.457 6.7304 5.6106 3.2187 23.892 14.878 34.914 29.215l1.2461 1.625 0.96875-1.8086c0.37378-0.69873 2.0604-2.4654 4.2695-4.3125 2.2091-1.8472 4.9633-3.9149 7.6446-5.8438 5.3624-3.8577 10.43-7.1562 10.43-7.1562l3.8946-2.5313-4.6445 0.10166s-1.0234 0.0342-3.5781-0.45313c-2.5547-0.48741-6.5385-1.5021-12.148-3.5976-5.4231-2.0254-11.57-6.2226-16.336-10.004-2.3828-1.8906-4.4278-3.6784-5.8867-5.0273-0.72951-0.6745-1.3163-1.2414-1.7149-1.6485-0.19918-0.20352-0.35237-0.36658-0.4453-0.47265-0.093-0.10602-0.1656-0.33806 0.0119 0.0742-0.10216-0.23839-0.0606-0.22619-0.0977-0.15618-0.037 0.07 0.12559-0.23363 1.2617-0.46093l0.332-0.0663 0.26173-0.21873c0.96189-0.80925 1.0913-2.135 0.85936-3.1719-0.23188-1.0369-0.74184-2.0366-1.3555-3.0273-1.2272-1.9815-2.8992-3.885-3.9804-4.9648-0.0694-0.0694-0.53893-0.66258-1.086-1.4609-0.54705-0.79837-1.2374-1.8479-2.0078-3.0586-1.5408-2.4215-3.4162-5.4816-5.2422-8.4961-3.6519-6.029-7.0386-11.785-7.2578-12.152h-6e-3c-0.1852-0.30858-0.58044-1.3183-1.7774-2.1172l-0.15237-0.10164-0.17582-0.0546c-1.1601-0.37286-2.531-0.33723-4.2266-0.25001-1.6955 0.0873-3.6296 0.29305-5.4648 0.52734-3.4127 0.43568-6.0491 0.90696-6.4649 0.98049-0.96864-0.48976-19.422-10.012-25.965-30.098l-2.582 0.44531c0.0671 2.4911-2.3873 6.7611-0.6758 13.73-9.0842-4.4439-16.89-11.69-23.285-28.512l-1.207-3.1797-1.2578 3.1602c-2.1997 5.5288-2.2205 10.138-1.6563 13.359 0.24953 1.4246 0.4422 1.4176 0.78126 2.2852-5.5198-2.0122-21.982-9.3462-25.152-27.617l-0.76568-4.4219-1.7539 4.1328c-2.261 5.3272-2.2886 9.7032-1.7031 12.742 0.19378 1.0058 0.33883 0.88993 0.60934 1.6055-7.1022-3.3933-44.144-19.773-104.41-20.07-10.785-0.98864-19.401-6.4354-26.324-14.391-6.9236-7.9552-12.09-18.42-15.746-29.203-3.6564-10.784-5.8074-21.883-6.7852-31.074-0.9778-9.1911-0.69289-16.624 0.1874-19.438l0.32811-1.0508-0.97655-0.51172s-64.685-34.047-191.64-49.055c-47.605-5.6281-92.004-7.355-128.9-7.3122zm175.75 63.633c-24.483-0.2782-51.712 0.31218-80.805 2.3789-116.45 8.2725-233.87 48.98-233.87 48.98l0.75391 2.5312s239.96-60.276 440.86-24.918l0.23045-1.3047 1.2578-0.39063-5.4766-17.656-0.79684-0.1406s-48.708-8.6459-122.16-9.4805zm118.09 35.965c-24.869 0.43313-85.573 4.7314-173.32 32.176-119.27 37.297-187.03 90.23-187.03 90.23l1.4609 2.1992s177.28-98.873 377.18-104.49l1.7774-0.0508-6.586-19.867-0.88673-0.0586s-4.308-0.28499-12.598-0.1406zm128.82 15.137-0.8867 2.4883c54.857 22.285 102.53 51.787 139.52 92.402l3.4024 3.7344-0.78518-3.4102 9.9453-0.64844-1.6445-1.9922s-51.334-62.222-149.43-92.531c-6e-3 -1e-3 -8e-3 -2e-3 -0.0119-4e-3 -0.0386-0.012-0.0706-0.0271-0.10943-0.039z" style="color-rendering:auto;color:#000000;dominant-baseline:auto;fill:#fff;font-feature-settings:normal;font-variant-alternates:normal;font-variant-caps:normal;font-variant-ligatures:normal;font-variant-numeric:normal;font-variant-position:normal;image-rendering:auto;isolation:auto;mix-blend-mode:normal;opacity:.05;shape-padding:0;shape-rendering:auto;solid-color:#000000;text-decoration-color:#000000;text-decoration-line:none;text-decoration-style:solid;text-indent:0;text-orientation:mixed;text-transform:none;white-space:normal"/></clipPath><filter id="c" x="-.057303" y="-.096838" width="1.1146" height="1.1937" style="color-interpolation-filters:sRGB"><feGaussianBlur stdDeviation="1.7725928"/></filter></defs><g id="b" transform="scale(2)"><path d="m-5.4095e-7 0h508v285.75h-508z" style="fill:url(#a);paint-order:normal;stroke-width:.49975"/><path d="m-5.4095e-7 285.75 508-285.75h-508z" style="fill:#fff;opacity:.02"/><path d="m254 285.75h-254l2e-14 -285.75h254z" style="opacity:.03"/><path d="m254 285.75 254-285.75h-254z" style="fill:#fff;opacity:.05"/><path d="m-5.4095e-7 0 254 285.75h254z" style="opacity:.02"/></g><path transform="matrix(1.9987 0 0 1.9987 1.2605 -570.9)" d="m59.522 294.87c-30.683 0.0356-50.947 2.5109-51.033 2.5215-1.8e-4 2e-5 -0.0488 4e-3 -0.0488 4e-3l0.11132 1.3164s111.94-5.3329 201.64 30.85c3.1182 13.664 11.974 35.611 16.941 46.637-6.9496 4.7852-14.375 9.5242-20.412 17.082-6.162 7.7138-10.833 18.34-12.086 34.775-2.5193 33.072 25.903 62.106 61.105 63 33.088 1.7611 55.795 2.0066 83.367 16.289 13.042 7.2083 25.025 21.895 33.98 39.781 8.9559 17.888 14.892 38.964 15.959 58.887l1.3203 0.016c1.1684-14.979-1.052-38.455-10.109-60.689-8.3328-20.456-22.595-39.758-45.246-50.35 32.102 7.0882 50.173 22.412 60.127 36.436 10.524 14.827 12.142 27.964 12.168 28.176l-0.0332 0.3906 0.41016 0.1992 1.0938 0.5274-0.14258-1.1992-2e-3 -0.01c0.0327-0.403 1.2197-15.882-9.6191-33.18-10.982-17.525-34.304-36.784-83.361-43.979-12.432-1.823-28.141-3.2236-44.043-3.2637h-0.01c-38.954 0.51471-58.908-21.826-61.996-44.812-1.5438-11.493 1.1537-23.151 7.8594-32.205 6.7057-9.0545 17.406-15.531 32.01-16.672h4e-3c24.111-1.9882 53.162 11.022 81.631 24.268-0.0765 3.405 0.13288 6.6424 2.4941 9.5918 1.3508 1.6875 4.2011 3.1534 7.1113 4.5273 2.9096 1.3736 5.8934 2.601 7.2266 3.3652 2.8053 1.6094 11.946 7.4388 17.457 14.607l0.625 0.8125 0.48242-0.9043c0.18687-0.34936 1.0302-1.2327 2.1348-2.1562 1.1046-0.92357 2.4817-1.9574 3.8223-2.9219 2.6812-1.9288 5.2148-3.5781 5.2148-3.5781l1.9473-1.2656-2.3223 0.0508s-0.5117 0.0171-1.7891-0.22657c-1.2774-0.24371-3.2693-0.7491-6.0742-1.7969-2.7116-1.0127-5.7852-3.1133-8.168-5.0039-1.1914-0.94532-2.2139-1.8392-2.9434-2.5137-0.36473-0.33724-0.6562-0.61875-0.85547-0.82226-0.0996-0.10176-0.17813-0.18525-0.22461-0.23829-0.0465-0.053-0.0828-0.16902 6e-3 0.0371-0.0511-0.1192-0.0303-0.11311-0.0488-0.0781-0.0185 0.035 0.0628-0.11683 0.63086-0.23047l0.16797-0.0332 0.12891-0.10938c0.48092-0.40463 0.54562-1.0675 0.42968-1.5859s-0.37093-1.0164-0.67773-1.5117c-0.6136-0.99074-1.4496-1.9444-1.9902-2.4844-0.0347-0.0347-0.26943-0.33128-0.54296-0.73047-0.27354-0.39919-0.61675-0.92393-1.002-1.5293-0.7704-1.2107-1.7101-2.7408-2.623-4.248-1.826-3.0145-3.5196-5.8911-3.6289-6.0742v-2e-3c-0.0926-0.15427-0.29215-0.65916-0.89063-1.0586l-0.0762-0.0508-0.0879-0.0273c-0.58009-0.18644-1.2655-0.16862-2.1133-0.125-0.84776 0.0436-1.8129 0.14652-2.7305 0.26367-1.7064 0.21784-3.0266 0.45349-3.2344 0.49023-0.48432-0.24487-9.711-5.006-12.982-15.049l-1.2891 0.22265c0.0336 1.2455-1.1956 3.3805-0.33984 6.8652-4.5421-2.222-8.4448-5.845-11.643-14.256l-0.60352-1.5898-0.6289 1.5801c-1.0999 2.7644-1.1083 5.0689-0.82617 6.6797 0.12498 0.71356 0.22084 0.71052 0.39062 1.1445-2.7572-1.0047-10.993-4.6703-12.578-13.809l-0.38282-2.2129-0.87695 2.0664c-1.1305 2.6636-1.1443 4.8535-0.85156 6.373 0.0969 0.50325 0.16933 0.44482 0.30469 0.80273-3.5505-1.6964-22.071-9.8886-52.203-10.037-5.3923-0.49431-9.7003-3.2177-13.162-7.1953s-6.0429-9.2098-7.8711-14.602-2.9056-10.94-3.3945-15.535c-0.4889-4.5955-0.34644-8.3118 0.0937-9.7188l0.16406-0.52734-0.48828-0.25586s-32.342-17.023-95.822-24.527c-23.804-2.8142-46.004-3.6757-64.453-3.6543zm87.877 31.814c-12.241-0.1391-25.856 0.15609-40.402 1.1894-58.225 4.1363-116.93 24.49-116.93 24.49l0.37695 1.2676s119.98-30.14 220.43-12.461l0.11524-0.65235 0.6289-0.19531-2.7383-8.8281-0.39648-0.0703s-24.356-4.3229-61.08-4.7402zm59.043 17.982c-12.434 0.21657-42.787 2.3657-86.662 16.088-59.637 18.648-93.512 45.115-93.512 45.115l0.72852 1.0996s88.638-49.436 188.59-52.244l0.88868-0.0254-3.293-9.9336-0.44336-0.0293s-2.154-0.1425-6.2988-0.0703zm64.408 7.5684-0.44336 1.2441c27.428 11.143 51.267 25.894 69.76 46.201l1.1309-0.60352-0.59961 0.81641 5.75-0.375-0.82227-0.9961s-25.667-31.111-74.715-46.266c-2e-3 -6.4e-4 -4e-3 -1e-3 -6e-3 -2e-3 -0.0193-6e-3 -0.0353-0.0136-0.0547-0.0195z" style="color-rendering:auto;color:#000000;dominant-baseline:auto;filter:url(#d);font-feature-settings:normal;font-variant-alternates:normal;font-variant-caps:normal;font-variant-ligatures:normal;font-variant-numeric:normal;font-variant-position:normal;image-rendering:auto;isolation:auto;mix-blend-mode:normal;opacity:.05;shape-padding:0;shape-rendering:auto;solid-color:#000000;text-decoration-color:#000000;text-decoration-line:none;text-decoration-style:solid;text-indent:0;text-orientation:mixed;text-transform:none;white-space:normal"/><path transform="matrix(1.3338 0 0 1.3338 -169.55 -230.58)" d="m473.32 495.68c-1.0381 8e-3 -1.9495 0.66368-2.2944 1.6397-0.11274 0.31734-0.1452 0.63873-0.1452 0.97152v32.715c0.0384 1.3632 1.1048 2.426 2.4556 2.4293 2.8313 4e-3 8.662-0.0103 8.662-0.0103l-0.0104-2.5316h-8.5043c-0.0451-0.27199-0.0336-32.288 0.0103-32.437 0.26051-0.0364 68.816-0.0233 68.966 0.0119 0.0415 0.24693 0.0293 32.267-0.016 32.435h-57.334v2.5321s0.22365 1.4e-4 0.32607 4e-3h57.255c1.0268-0.0103 1.9362-0.65466 2.2862-1.6226 0.11274-0.30837 0.1452-0.62629 0.1452-0.95136v-32.777c-0.0216-1.0828-0.75842-2.0339-1.8009-2.3218l-2e-3 1e-3c-0.27607-0.0739-0.55142-0.0873-0.83664-0.0873zm31.925 9.6066c-0.0214 0.0412-0.037 0.0711-0.0455 0.0992-2.3235 6.2308-4.6448 12.464-6.9675 18.694-0.0103 0.0103-0.0103 0.0292-0.0103 0.0413v0.0201c0 8e-3 0.0102 0.0118 0.0119 0.0212h3.1955c0.0246-0.0711 0.053-0.13229 0.0744-0.19844 0.49387-1.4031 0.98782-2.8037 1.4831-4.208 0.0824-0.22572 0.1643-0.45291 0.23876-0.67953 0.0294-0.0946 0.078-0.14377 0.17775-0.13179 0.0324 4e-3 0.07 0 0.10284 0h6.9717c0.63021 1.746 1.256 3.4794 1.8795 5.2131h3.2634c-2.3543-6.3078-4.6984-12.592-7.0383-18.872zm-12.266 0.0625c-0.1819 0-0.29652 0.0526-0.41653 0.19378-2.4301 2.8777-4.8662 5.756-7.3019 8.6305-0.0324 0.0368-0.0745 0.0696-0.1447 0.13436v-7.1588c0-0.59254 0.0103-1.187 0-1.7797h-3.0562v18.772c0.2426 0.0426 2.8977 0.034 3.0613-0.0103v-0.23874l-9e-3 -1e-3v-6.5479c0-0.14769 0.0417-0.25157 0.16227-0.3452 0.50572-0.39989 1.0043-0.81082 1.5033-1.219 0.0498-0.037 0.0981-0.0699 0.16018-0.11523 0.0538 0.0696 0.0993 0.12658 0.14108 0.18912 0.84828 1.2238 1.6972 2.446 2.5451 3.668 1.0402 1.5051 2.0821 3.0034 3.1202 4.5015 0.0576 0.087 0.11038 0.15296 0.23823 0.15296 1.093-4e-3 2.185-4e-3 3.2768-4e-3 0.0362 0 0.0731-0.0118 0.13073-0.0248-2.4172-3.5203-4.8242-7.0162-7.2388-10.533 0.48577-0.56391 0.95583-1.1068 1.4252-1.663 0.47061-0.54451 0.9393-1.0908 1.4092-1.6392 0.46916-0.54692 0.93517-1.0948 1.4056-1.6423 0.46942-0.54875 0.9395-1.0961 1.4035-1.6433 0.46733-0.54306 0.93099-1.0863 1.4263-1.6722h-0.27493c-0.98912 0-1.978 6e-3 -2.9672-4e-3zm24.765 0.0202c-0.051 0.23471-0.0385 18.64 0.0103 18.794h10.993v-2.6154h-5.303c-0.44583 0-0.89506 4e-3 -1.339 0-0.43746-4e-3 -0.87323 0.0165-1.327-0.01v-14.717l-2e-3 -2e-3c0-0.48612 0.018-0.96798-0.0139-1.4495zm13.095 6e-3v18.783h3.0448c0.0103-0.0316 0.0181-0.0479 0.0181-0.0692v-18.604h-2e-3c0-0.0292-6e-5 -0.0535-0.0104-0.0837 0-8e-3 -0.0103-0.0103-0.0103-0.016 0-4e-3 -0.0119-0.0104-0.0119-0.0104zm-23.958 2.6288c0.0324 0.0494 0.0574 0.0796 0.0661 0.11213 0.51051 1.9062 1.2085 3.7557 1.8423 5.6255 0.26323 0.77803 0.53612 1.5516 0.80407 2.3301 0.0204 0.0696 0.0403 0.13917 0.0651 0.22529h-5.4756c0.0244-0.0811 0.045-0.15086 0.0687-0.22063 0.64272-1.8611 1.2945-3.714 1.9208-5.58 0.25131-0.74999 0.44083-1.5238 0.65474-2.2888 0.018-0.058 0.0294-0.11634 0.0538-0.2036zm-23.963 27.65c-0.58013 1.1e-4 -1.0279 0.17021-1.34 0.51004-0.31335 0.34057-0.47027 0.82717-0.47027 1.4614 0 0.63428 0.15663 1.1234 0.46818 1.4681 0.31097 0.34435 0.75613 0.51625 1.3364 0.51625 0.57451 0 1.017-0.17396 1.3296-0.51988 0.31326-0.3474 0.47027-0.83277 0.47027-1.4593 0-0.62717-0.15534-1.1139-0.46871-1.4588-0.31208-0.34525-0.75412-0.51768-1.325-0.51779zm42.008 6e-3c-0.37349 0-0.70004 0.0797-0.97668 0.23926-0.27628 0.1593-0.48805 0.38864-0.63458 0.68834-0.1465 0.30062-0.21963 0.65032-0.21963 1.049 0 0.63487 0.15108 1.1219 0.4532 1.4619 0.30142 0.34184 0.73364 0.51212 1.296 0.51212 0.38137 0 0.72411-0.0581 1.0258-0.17002v-0.54001c-0.16428 0.0521-0.3238 0.0932-0.47646 0.1266-0.1519 0.032-0.31081 0.048-0.47334 0.048-0.37621 0-0.6644-0.12181-0.86405-0.3638-0.19865-0.24125-0.29816-0.59897-0.29816-1.0686 0-0.45149 0.10369-0.80256 0.31057-1.0594 0.20682-0.25646 0.49038-0.38396 0.85111-0.38396 0.15909 0 0.31136 0.0217 0.45683 0.0692 0.14449 0.0462 0.2817 0.10059 0.41185 0.16174l0.22582-0.52295c-0.33269-0.16529-0.69686-0.24754-1.0883-0.24754zm-22.68 5.2e-4c-0.3838 0-0.6904 0.0924-0.91829 0.27544-0.22804 0.18407-0.34158 0.43709-0.34158 0.75705 0 0.25649 0.0717 0.47506 0.21601 0.65786 0.14309 0.18227 0.39103 0.34327 0.74258 0.48522 0.3388 0.13692 0.56348 0.25506 0.67231 0.35554 0.10834 0.10055 0.16279 0.22228 0.16279 0.36484 0 0.15949-0.0585 0.28678-0.17724 0.3819-0.11795 0.0942-0.30282 0.14158-0.55192 0.14158-0.1691 0-0.35399-0.0236-0.55086-0.0708-0.19789-0.0476-0.38246-0.11226-0.55759-0.19481v0.59428c0.27692 0.13393 0.63244 0.20257 1.0666 0.20257 0.43535 0 0.77608-0.098 1.0237-0.29197 0.24707-0.19386 0.37102-0.46265 0.37102-0.80407 0-0.1747-0.0316-0.32406-0.0925-0.45167-0.0605-0.12872-0.15816-0.2432-0.2894-0.3452h2e-3c-0.1325-0.10176-0.33985-0.21154-0.62063-0.32814-0.25188-0.10332-0.42518-0.18708-0.52091-0.25064-0.0971-0.0629-0.16621-0.12983-0.20773-0.19997-0.043-0.0716-0.0641-0.1574-0.0641-0.25736 0-0.1451 0.0525-0.26249 0.15762-0.34983 0.10493-0.0897 0.25923-0.13335 0.46302-0.13335 0.26741 0 0.57322 0.0712 0.91569 0.2155l0.19844-0.5116c-0.36301-0.16147-0.72985-0.24236-1.0986-0.24236zm15.054 0c-0.38396 0-0.68953 0.0924-0.91726 0.27544-0.22791 0.18407-0.34261 0.43709-0.34261 0.75705 0 0.25649 0.0719 0.47506 0.21601 0.65786 0.14311 0.18227 0.39026 0.34327 0.74207 0.48522 0.33981 0.13692 0.56388 0.25506 0.67284 0.35554 0.10832 0.10055 0.16227 0.22228 0.16227 0.36484 0 0.15949-0.0587 0.28678-0.17674 0.3819-0.11814 0.0942-0.30247 0.14158-0.55192 0.14158-0.16889 0-0.35359-0.0236-0.5493-0.0708-0.19908-0.0476-0.38434-0.11226-0.56071-0.19481v0.59428c0.2781 0.13393 0.63397 0.20257 1.0687 0.20257 0.43479 0 0.77658-0.098 1.0237-0.29197 0.24672-0.19386 0.37002-0.46262 0.37002-0.80407 0-0.1747-0.0315-0.32406-0.092-0.45167-0.0622-0.12872-0.15869-0.2432-0.28937-0.3452-0.13171-0.10176-0.33907-0.21154-0.62167-0.32814-0.24894-0.10332-0.42434-0.18708-0.51988-0.25064-0.0959-0.0629-0.16565-0.12983-0.20722-0.19997-0.0415-0.0716-0.063-0.1574-0.063-0.25736 0-0.1451 0.0518-0.26249 0.15761-0.34983 0.10494-0.0897 0.25998-0.13335 0.46252-0.13335 0.26861 0 0.57388 0.0712 0.91623 0.2155l0.19843-0.5116c-0.3634-0.16147-0.73038-0.24236-1.0986-0.24236zm-42.173 0.0532 1.2749 2.374v1.4692h0.63148v-1.4904l1.2805-2.3528h-0.68419l-0.909 1.7544-0.91053-1.7544zm17.759 0v3.8432h2.1751v-0.53332h-1.5456v-1.2061h1.4485v-0.52605h-1.4485v-1.0464h1.5456v-0.53123zm-21.344 5e-4v3.8432h1.3875c0.42932 0 0.76499-0.096 1.0067-0.293 0.24075-0.19587 0.36071-0.46606 0.36071-0.81082 0-0.25643-0.0644-0.45876-0.19068-0.60872-0.12743-0.15063-0.32515-0.25048-0.59429-0.30181v-0.0258c0.21715-0.0379 0.38365-0.1321 0.4997-0.28061 0.11453-0.1487 0.17261-0.33563 0.17261-0.56018 0-0.33279-0.11726-0.57682-0.35346-0.7307-0.23553-0.15391-0.61909-0.23151-1.1477-0.23151zm14.535 0v3.8427h0.62423v-1.5777h1.4485v-0.53279h-1.4485v-1.201h1.5451v-0.53123zm3.405 0v3.8427h0.62373v-1.5777h1.4485v-0.53279h-1.4485v-1.201h1.5462v-0.53123zm6.952 0v3.8432h0.57049v-1.9973c0-0.27022-0.0144-0.56761-0.0377-0.89349l-0.0119-0.17053h0.0202l1.8919 3.0613h0.76896v-3.8426h-0.57518v2.0138h-2e-3c0 0.14129-4.2e-4 0.33843 0.0176 0.59222 0.0103 0.25379 0.0183 0.40031 0.0202 0.44027h-0.0139l-1.8867-3.0468zm14.326 0v3.8437h2.1735v-0.53435h-1.5467v-1.2056h1.45v-0.52607h-1.45v-1.0465h1.5467v-0.53123zm8.9808 0v3.8437h2.1746v-0.53435h-1.5456v-1.2056h1.4485v-0.52607h-1.4485v-1.0465h1.5456v-0.53123zm-15.053 5.3e-4v3.8432h0.62891v-3.8432zm32.818 0v0.54002h1.1296v3.3032h0.62789v-3.3032h1.1312v-0.54002zm-31.144 5e-4 1.341 3.8427h0.66352l1.3467-3.8427h-0.65321l-0.79994 2.3782c-0.0305 0.0845-0.069 0.21487-0.11732 0.38965-0.0466 0.17468-0.0822 0.32986-0.10488 0.46199-0.016-0.0873-0.0453-0.22016-0.0925-0.4-0.0484-0.17986-0.091-0.32657-0.13486-0.44079l-0.80203-2.389zm20.842 0v2.4763c0 0.44046 0.13216 0.78825 0.39688 1.0402 0.26524 0.25297 0.63529 0.3788 1.1121 0.3788 0.32078 0 0.59721-0.0582 0.82785-0.17208 0.23003-0.11433 0.40561-0.2789 0.52763-0.49094 0.12232-0.21261 0.18294-0.46156 0.18294-0.74517v-2.4872h-0.62789v2.4257c0 0.62206-0.29614 0.9338-0.88934 0.9338-0.30454 0-0.53184-0.0766-0.6785-0.22686-0.1475-0.14991-0.22066-0.38314-0.22066-0.70075v-2.4319zm4.5692 0v3.8432h0.62839v-1.5353h0.62063l0.91935 1.5343h0.71623l-1.0857-1.7002c0.49818-0.2032 0.74634-0.54292 0.74671-1.0222v-0.00104c-2.2e-4 -0.37398-0.11965-0.65344-0.35656-0.84023-0.2391-0.18489-0.60605-0.27856-1.1022-0.27856zm3.9801 0v3.8427h0.62891v-3.8427zm5.2607 0 1.2764 2.374v1.4686h0.63098v-1.4898l1.2811-2.3528h-0.68419l-0.9095 1.7539-0.91004-1.7539zm-58.094 0.47853c0.37356 0 0.65336 0.12057 0.84283 0.36483 0.18727 0.24334 0.28164 0.60111 0.28164 1.0723 0 0.47799-0.0947 0.83828-0.28424 1.0795-0.19166 0.24217-0.47228 0.3633-0.84645 0.3633-0.37478 0-0.65768-0.12245-0.84955-0.3669-0.19008-0.24424-0.28578-0.60325-0.28578-1.0759 0-0.4712 0.0961-0.82865 0.28887-1.0723 0.19127-0.24392 0.47586-0.36483 0.85268-0.36483zm-10.749 0.0455h0.54364c0.28466 0 0.49157 0.0405 0.62373 0.12195 0.12993 0.0806 0.19431 0.2118 0.19431 0.39224 0 0.19947-0.0599 0.33962-0.18087 0.42373-0.12031 0.0824-0.31314 0.12507-0.57568 0.12507h-0.60513zm60.231 7e-3h0.41497c0.28612 0 0.50065 0.0477 0.64183 0.14161 0.14308 0.0951 0.21291 0.2508 0.21291 0.46818 0 0.21381-0.0647 0.37536-0.19638 0.48421-0.1307 0.10793-0.34364 0.16277-0.63666 0.16277h-0.43667zm-60.231 1.5648h0.63614c0.279 0 0.48707 0.0485 0.62219 0.1452 0.1379 0.0951 0.20566 0.24439 0.20566 0.44392 0 0.21738-0.0654 0.37608-0.2005 0.47746-0.13491 0.10057-0.33208 0.15143-0.59582 0.15143h-0.66767z" style="clip-rule:evenodd;fill-rule:evenodd;filter:url(#c);opacity:.3;stroke-width:.2983"/><path d="m555.11 430.66c-0.3682-0.0985-0.73548-0.11659-1.1159-0.11659h-92.246c-1.3846 0.0108-2.6 0.88498-3.06 2.1867-0.15035 0.42323-0.19407 0.85159-0.19407 1.2955v43.634c0.0512 1.8182 1.4737 3.2361 3.2753 3.2405 3.7763 5e-3 11.553-0.0136 11.553-0.0136l-0.0137-3.3768h-11.343c-0.0602-0.36275-0.0449-43.065 0.0137-43.263 0.34747-0.0485 91.784-0.031 91.985 0.016 0.0553 0.32936 0.0393 43.037-0.0212 43.261h-76.47v3.3772s0.29845 0 0.43505 5e-3h76.365c1.3695-0.0136 2.5829-0.87268 3.0497-2.1638 0.15035-0.41128 0.19356-0.83523 0.19356-1.2688v-43.717c-0.0288-1.4442-1.0117-2.7128-2.4021-3.0967zm-77.635 37.511v-8.7332c0-0.19697 0.0553-0.33528 0.21618-0.46016 0.67451-0.53338 1.3399-1.0819 2.0055-1.6264 0.0664-0.0493 0.13096-0.0931 0.21377-0.15353 0.0718 0.0928 0.13219 0.16875 0.18794 0.25219 1.1314 1.6323 2.2637 3.2628 3.3944 4.8925 1.3874 2.0075 2.7772 4.0057 4.1616 6.0038 0.0769 0.11598 0.14746 0.20392 0.31795 0.20392 1.4578-5e-3 2.914-5e-3 4.3702-5e-3 0.0482 0 0.0978-0.016 0.17459-0.0334-3.224-4.6952-6.4347-9.3581-9.6553-14.049 0.64791-0.75213 1.2747-1.476 1.9008-2.2178 0.62771-0.72626 1.2532-1.455 1.8799-2.1863 0.62576-0.72945 1.247-1.4601 1.8744-2.1903 0.6261-0.73188 1.2532-1.4621 1.8722-2.1919 0.6233-0.72431 1.2421-1.449 1.9028-2.2304h-0.36731c-1.3193 0-2.6379 8e-3 -3.9574-5e-3 -0.24258 0-0.39555 0.0703-0.55561 0.25857-3.2412 3.8382-6.4901 7.6772-9.7388 11.511-0.0431 0.0491-0.0991 0.0931-0.19271 0.1794v-9.5484c0-0.79031 0.0136-1.583 0-2.3737h-4.0762v25.037c0.32358 0.0568 3.8642 0.0452 4.0825-0.0136v-0.31857zm21.764 0.36236c0.0328-0.0948 0.0703-0.17622 0.0989-0.26444 0.65872-1.8714 1.3181-3.7396 1.9786-5.6126 0.10988-0.30105 0.21913-0.60375 0.31843-0.90603 0.0393-0.12618 0.10365-0.1922 0.23671-0.17622 0.0431 5e-3 0.0932 0 0.13699 0h9.2985c0.84056 2.3288 1.6753 4.6407 2.5069 6.9531h4.353c-3.1401-8.4131-6.267-16.793-9.3878-25.171h-4.4511c-0.0286 0.0549-0.0496 0.0949-0.0609 0.13243-3.099 8.3104-6.1948 16.624-9.2928 24.933-0.0136 0.0136-0.0136 0.0393-0.0136 0.0553v0.0266c0 0.0108 0.0136 0.016 0.016 0.0285h4.254zm3.7631-10.786c0.85725-2.4823 1.7267-4.9536 2.562-7.4424 0.33517-1.0003 0.58783-2.0321 0.87317-3.0523 0.0241-0.0773 0.0393-0.15488 0.0718-0.27126 0.0431 0.0658 0.0768 0.10593 0.0885 0.14927 0.68092 2.5424 1.6117 5.0092 2.4569 7.5031 0.35111 1.0377 0.71476 2.0691 1.0722 3.1074 0.0272 0.0929 0.0541 0.18582 0.0871 0.3007h-7.3037c0.0326-0.1082 0.0602-0.20126 0.0918-0.29433zm22.04-12.347c0-0.64836 0.0239-1.2908-0.0187-1.933h-4.0257c-0.068 0.31305-0.0514 24.861 0.0136 25.067h14.663v-3.4878h-7.0732c-0.59462 0-1.1939 5e-3 -1.7859 0-0.5835-5e-3 -1.1646 0.0214-1.7698-0.0136v-19.629zm17.504-1.7787c0-0.0389 0-0.0712-0.0136-0.11156 0-0.0108-0.0136-0.0136-0.0136-0.0213 0-5e-3 -0.016-0.0136-0.016-0.0136h-4.0394v25.052h4.0609c0.0136-0.0421 0.0239-0.0645 0.0239-0.0929v-24.813z" style="clip-rule:evenodd;fill-rule:evenodd;fill:#fff;stroke-width:.39786"/><path d="m462.17 486.37v-0.0345c0.28964-0.0506 0.51211-0.1762 0.66691-0.37428 0.15275-0.19834 0.2298-0.44746 0.2298-0.74695 0-0.4439-0.15621-0.76964-0.47126-0.97486-0.31411-0.20528-0.82556-0.30866-1.5306-0.30866h-1.5222v5.1258h1.851c0.57259 0 1.02-0.12791 1.3423-0.39066 0.32111-0.26126 0.48151-0.62167 0.48151-1.0815 0-0.34203-0.0858-0.61173-0.25432-0.81175-0.17006-0.201-0.43383-0.33411-0.79313-0.40254zm-1.7894-1.739h0.72511c0.37969 0 0.65513 0.0536 0.83141 0.16233 0.17329 0.10749 0.2594 0.2824 0.2594 0.52308 0 0.26604-0.0798 0.4534-0.24125 0.56557-0.16048 0.10988-0.41791 0.16688-0.76806 0.16688h-0.80671zm1.6848 3.5192c-0.17992 0.1341-0.44284 0.20206-0.79459 0.20206h-0.89032v-1.6245h0.84805c0.3721 0 0.64993 0.0645 0.83015 0.19355 0.18393 0.12684 0.27414 0.32618 0.27414 0.59227 0 0.28995-0.0871 0.50114-0.26743 0.63638zm4.3856-1.8805-1.214-2.3394h-0.91146l1.7003 3.1664v1.9592h0.84216v-1.9877l1.7086-3.1378h-0.91254zm8.266-2.4198c-0.7741 0-1.3711 0.22711-1.7874 0.68054-0.41791 0.45421-0.62722 1.103-0.62722 1.9489 0 0.84601 0.20846 1.4984 0.62403 1.9581 0.41474 0.45926 1.0084 0.68853 1.7823 0.68853 0.76628 0 1.3568-0.23193 1.7739-0.6933 0.41783-0.46337 0.62672-1.1105 0.62672-1.9462 0-0.83649-0.20713-1.4855-0.62511-1.9457-0.41636-0.46064-1.0056-0.69094-1.7674-0.69094zm1.1212 4.0769c-0.25565 0.32298-0.63009 0.48487-1.1291 0.48487-0.49988 0-0.8775-0.16317-1.1334-0.48924-0.25349-0.32576-0.38086-0.8046-0.38086-1.435 0-0.62845 0.12791-1.1054 0.38496-1.4303 0.25511-0.32535 0.63472-0.48682 1.1373-0.48682 0.49827 0 0.87159 0.16101 1.1243 0.48682 0.24977 0.32456 0.37605 0.80186 0.37605 1.4303 0 0.63758-0.12645 1.1176-0.37922 1.4394zm3.0899 1.1293h0.83295v-2.1042h1.9321v-0.71075h-1.9321v-1.6021h2.0611v-0.70838h-2.8936v5.1251zm4.5415 0h0.83229v-2.1042h1.9318v-0.71075h-1.9318v-1.6021h2.0623v-0.70838h-2.894v5.1251zm4.5422 0h2.9006v-0.71167h-2.0615v-1.6085h1.9321v-0.7016h-1.9321v-1.3957h2.0615v-0.70838h-2.9006zm8.2309-2.4391c0 0.18847 0 0.45142 0.0241 0.78991 0.0136 0.3385 0.0239 0.53418 0.0266 0.58747h-0.0187l-2.516-4.0637h-1.0165v5.1257h0.76094v-2.6635c0-0.36039-0.0187-0.75732-0.0498-1.192l-0.016-0.22715h0.0266l2.5235 4.0832h1.0253v-5.1257h-0.76682v2.686zm5.2895-0.0138c-0.17673-0.13575-0.4529-0.282-0.82741-0.43751-0.33593-0.13782-0.56756-0.24978-0.69522-0.33453-0.12951-0.0839-0.22126-0.173-0.27665-0.26657-0.0575-0.0955-0.0859-0.20953-0.0859-0.34284 0-0.19353 0.0705-0.35044 0.21061-0.46694 0.13996-0.1197 0.34579-0.17781 0.61758-0.17781 0.35666 0 0.76453 0.0948 1.2213 0.28723l0.2647-0.68216c-0.48418-0.21539-0.97382-0.32337-1.4657-0.32337-0.51187 0-0.92053 0.12337-1.2245 0.36753-0.30413 0.24551-0.45607 0.58267-0.45607 1.0094 0 0.34207 0.0962 0.63364 0.28878 0.87745 0.19087 0.24313 0.52103 0.4582 0.98994 0.64752 0.45188 0.18261 0.75169 0.34009 0.89686 0.47414 0.14449 0.1341 0.21728 0.29629 0.21728 0.48642 0 0.21273-0.0783 0.38265-0.23673 0.50949-0.15729 0.12565-0.40392 0.18875-0.73615 0.18875-0.22551 0-0.47166-0.0314-0.73427-0.0943-0.26392-0.0634-0.51069-0.14956-0.74429-0.25965v0.79236c0.36938 0.17863 0.84365 0.27005 1.4227 0.27005 0.58063 0 1.0352-0.13071 1.3655-0.38941 0.32953-0.25858 0.49472-0.6165 0.49472-1.0719 0-0.23299-0.0419-0.4328-0.12311-0.60299-0.0807-0.17168-0.21059-0.32415-0.38561-0.46017zm2.2188 2.454h0.83882v-5.1257h-0.83882zm4.7637-1.9533c-0.0407 0.11276-0.0918 0.28676-0.15622 0.51985-0.0621 0.23298-0.10976 0.43991-0.13993 0.6161-0.0213-0.11646-0.0602-0.29394-0.12311-0.53379-0.0645-0.23991-0.12178-0.43552-0.18021-0.58787l-1.0698-3.1866h-0.86207l1.7886 5.1255h0.88468l1.7962-5.1255h-0.87075zm3.3356 1.9533h2.8987v-0.71261h-2.0625v-1.6084h1.9341v-0.70162h-1.9341v-1.3957h2.0625v-0.7084h-2.8987zm9.7592-2.454c-0.17568-0.13575-0.45248-0.282-0.82941-0.43751-0.33202-0.13782-0.56587-0.24978-0.69329-0.33453-0.12791-0.0839-0.22125-0.173-0.27669-0.26657-0.0553-0.0955-0.0839-0.20953-0.0839-0.34284 0-0.19353 0.0692-0.35044 0.21033-0.46694 0.13994-0.1197 0.34679-0.17781 0.61692-0.17781 0.35825 0 0.76528 0.0948 1.2219 0.28723l0.26445-0.68216c-0.48469-0.21539-0.97425-0.32337-1.4654-0.32337-0.51213 0-0.9196 0.12337-1.2233 0.36753-0.30397 0.24551-0.45681 0.58267-0.45681 1.0094 0 0.34207 0.0964 0.63364 0.28849 0.87745 0.19087 0.24313 0.52017 0.4582 0.98941 0.64752 0.45319 0.18261 0.7521 0.34009 0.89741 0.47414 0.14448 0.1341 0.21673 0.29629 0.21673 0.48642 0 0.21273-0.0784 0.38265-0.23591 0.50949-0.15757 0.12565-0.40358 0.18875-0.73626 0.18875-0.22526 0-0.47158-0.0314-0.73264-0.0943-0.26552-0.0634-0.51225-0.14956-0.74748-0.25965v0.79236c0.37092 0.17863 0.84493 0.27005 1.4248 0.27005 0.57991 0 1.0359-0.13071 1.3655-0.38941 0.32905-0.25858 0.49402-0.6165 0.49402-1.0719 0-0.23299-0.0424-0.43278-0.1231-0.60297-0.0829-0.17168-0.2114-0.32415-0.3857-0.4602zm2.219 2.454h2.9004v-0.71261h-2.0619v-1.6084h1.9321v-0.70162h-1.9321v-1.3957h2.0619v-0.7084h-2.9004zm6.9085-4.4797c0.21219 0 0.41532 0.0296 0.60931 0.093 0.19274 0.0616 0.37524 0.13384 0.54882 0.2154l0.3016-0.69722c-0.44372-0.22046-0.92971-0.33013-1.4518-0.33013-0.49816 0-0.93366 0.10617-1.3026 0.31899-0.36851 0.21245-0.65066 0.51827-0.8461 0.91798-0.19539 0.40095-0.29323 0.86708-0.29323 1.3989 0 0.84677 0.20154 1.4966 0.6045 1.9501 0.402 0.45592 0.97856 0.68279 1.7287 0.68279 0.50864 0 0.96583-0.0773 1.3682-0.2266v-0.72018c-0.2191 0.0694-0.43187 0.12444-0.63547 0.16901-0.2026 0.0427-0.41448 0.0637-0.63128 0.0637-0.50179 0-0.88626-0.16208-1.1525-0.48483-0.26499-0.3218-0.39755-0.79909-0.39755-1.4255 0-0.60215 0.13836-1.0707 0.41428-1.4133 0.27584-0.34205 0.65392-0.51186 1.135-0.51186zm6.2716 2.5898c0 0.82969-0.39444 1.2454-1.1856 1.2454-0.40619 0-0.70965-0.10186-0.90527-0.30229-0.19673-0.19994-0.29455-0.51148-0.29455-0.93507v-3.2437h-0.84096v3.3032c0 0.58744 0.17621 1.0512 0.52929 1.3874 0.35377 0.33741 0.84687 0.50508 1.4828 0.50508 0.42781 0 0.79636-0.0773 1.104-0.22925 0.3068-0.15247 0.54158-0.37184 0.70434-0.65465 0.16315-0.28359 0.24392-0.61571 0.24392-0.99396v-3.3176h-0.83739v3.2352zm6.2628-1.742c0-0.49955-0.15913-0.87224-0.47542-1.1217-0.31891-0.24657-0.80885-0.37146-1.4706-0.37146h-1.449v5.1257h0.83809v-2.0478h0.82745l1.226 2.0467h0.95563l-1.4482-2.2681c0.66497-0.27123 0.99606-0.72425 0.99606-1.3642zm-1.9748 0.89172h-0.58229v-1.6764h0.55328c0.3816 0 0.66766 0.0634 0.85597 0.18874 0.19087 0.12683 0.28373 0.33449 0.28373 0.62444 0 0.28517-0.0858 0.50079-0.26153 0.64596-0.17432 0.14396-0.45847 0.217-0.84929 0.217zm3.8881 2.7402h0.83843v-5.1255h-0.83843zm2.3381-4.4057h1.5064v4.4057h0.83723v-4.4057h1.5092v-0.71995h-3.8531v0.71995zm8.0183-0.71954-1.2129 2.3394-1.214-2.3394h-0.91295l1.702 3.1665v1.959h0.84174v-1.9877l1.7087-3.1378z" style="clip-rule:evenodd;fill-rule:evenodd;fill:#fff;stroke-width:.39786"/><use width="100%" height="100%" clip-path="url(#e)" xlink:href="#b"/><path d="m426.42 116.26s-68.565-4.5596-185.32 31.955c-118.99 37.208-186.48 89.952-186.48 89.952s177.35-98.963 377.54-104.59zm255.75 107.6 8.9139-0.5811s-51.07-61.928-148.82-92.09c54.95 22.323 102.78 51.902 139.91 92.673zm14.588 25.73c1.3705-2.3747 5.7943 7.5444 9.1546 11.711 0.14251 0.8321 0.37867 1.3398-1.5693 0.93931-0.16329-0.85537-0.44649-1.1034-0.44649-1.1034s-4.7018-2.796-6.1436-4.7794c-1.4427-1.9833-1.6987-5.4525-0.99543-6.768zm119.96 294.78s10.841-124.4-184.71-153.07c-24.786-3.6345-56.13-6.4321-87.837-6.512-156.74 2.071-162.45-180.67-44.342-189.89 48.948-4.0363 107.4 22.353 164.53 48.946-0.21197 7.092 0.0815 13.395 4.7435 19.218 4.6606 5.822 22.565 12.174 28.286 15.454 5.7206 3.2818 24.047 14.927 35.279 29.537 2.4355-4.5532 22.776-17.785 22.776-17.785s-4.8728 0.10613-16.208-4.1281c-11.337-4.234-24.789-17.045-25.108-17.785-0.31769-0.74165-0.52911-1.9057 2.1202-2.4357 2.0117-1.6925-2.5442-7.1982-4.557-9.2085-2.0116-2.0118-15.467-24.877-15.784-25.408-0.31769-0.52943-0.42434-1.0581-1.3769-1.6939-2.967-0.95356-15.997 1.3761-15.997 1.3761s-20.039-9.8368-26.948-31.045c0.10034 3.7147-3.4365 7.7705 0 16.305-10.449-4.4176-19.424-11.952-26.503-30.57-4.2134 10.59 0 17.323 0 17.323s-24.605-6.8713-28.54-29.549c-4.3206 10.18 0 16.303 0 16.303s-40.113-20.918-106.77-21.222c-44.623-4.0906-53.912-82.542-49.779-95.752 0 0-64.362-33.901-191.06-48.878-126.7-14.979-230.6-2.2573-230.6-2.2573s224.39-10.763 404.17 61.974c6.1112 27.317 24.494 72.813 34.395 94.685-28.332 19.577-60.281 37.986-65.256 103.28-4.9736 65.29 51.194 122.72 120.84 124.49 66.136 3.5208 111.83 4.0209 167.22 32.718 52.868 29.213 96.214 118.23 100.5 198.29 4.6333-59.402-17.672-187.14-121.76-225.93 145.48 25.444 158.28 133.23 158.28 133.23zm-393.72-437.86-5.2346-16.874s-86.374-15.329-202.5-7.0791c-116.13 8.2497-233.37 48.878-233.37 48.878s239.92-60.333 441.12-24.923" style="fill:none;opacity:.05;stroke-width:2.6441;stroke:#fff"/></svg>
