<svg width="3840" height="2160" version="1.1" viewBox="0 0 1016 571.5" xmlns="http://www.w3.org/2000/svg"><defs><radialGradient id="a" cx="508.88" cy="275.85" r="508" gradientTransform="matrix(1.7388 -3.3181e-8 2.8739e-8 1.506 -1392.2 -142.84)" gradientUnits="userSpaceOnUse"><stop stop-color="#316fd8" offset="0"/><stop stop-color="#23bac2" offset="1"/></radialGradient><filter id="b" x="-.031331" y="-.042304" width="1.0627" height="1.0846" color-interpolation-filters="sRGB"><feGaussianBlur stdDeviation="5.2271844"/></filter></defs><rect transform="scale(-1,1)" x="-1016" y="1e-5" width="1016" height="571.5" fill="url(#a)" style="paint-order:fill markers stroke"/><path transform="matrix(-1,0,0,1,1016,0)" d="m680.82 154.86c-16.44-0.0194-36.221 0.75069-57.432 3.2598-56.57 6.6911-85.486 21.906-85.486 21.906l-0.91602 0.48242 0.3086 0.98633c0.31597 1.0103 0.48873 4.3428 0.0586 8.3887-0.43014 4.0459-1.3823 8.9447-2.9902 13.689-1.608 4.7448-3.8791 9.3306-6.8789 12.779-2.998 3.4466-6.6632 5.7568-11.27 6.1816-24.125 0.12792-40.02 6.082-45.457 8.4531 0.19008-1.431 0.12618-3.2763-0.82032-5.5078l-1.6465-3.8848-0.7207 4.1562c-1.1367 6.5522-6.4552 9.8091-9.5449 11.225 0.227-1.523 0.1895-3.5792-0.7832-6.0254l-1.1309-2.8457c11.283-7.7716 23.778-14.309 37.316-19.812l26.553-10.793-27.387 8.4551c-0.036 0.0111-0.0656 0.026-0.10156 0.0371-5.3e-4 2.3e-4 -1e-3 -2.3e-4 -2e-3 0-20.118 6.2267-35.619 15.419-46.734 23.59l0.01-0.36132-0.15039 0.46093c-12.988 9.5692-19.863 17.689-19.863 17.689l-1.543 1.8711 6.8418 0.44727 0.36719-0.27149 0.0977-0.0723 0.082-0.0898c3.4479-3.7882 7.1511-7.3126 11.006-10.682-3.0409 7.5579-9.7394 11.3-10.551 11.725-0.34662-0.0605-1.2572-0.22434-2.666-0.4043-0.82621-0.10553-1.6987-0.19804-2.4805-0.23828-0.78178-0.0402-1.3904-0.0919-2.1133 0.14063l-0.166 0.0527-0.14453 0.0977c-0.6531 0.43605-0.97145 1.1204-0.98829 1.1484v2e-3c-0.13334 0.2232-1.6047 2.7251-3.2266 5.4043-0.81093 1.3396-1.6454 2.699-2.3262 3.7695-0.34036 0.53523-0.64262 0.99873-0.8789 1.3438-0.23627 0.34502-0.46743 0.61786-0.4082 0.55859-0.51772 0.51747-1.2748 1.3774-1.8633 2.3281-0.29454 0.47581-0.55472 0.96153-0.68556 1.5469-0.13082 0.58534-0.0549 1.5036 0.59962 2.0547l0.0801 0.0684c-0.0996 0.0951-0.15658 0.1557-0.27539 0.26562-0.63656 0.58893-1.5363 1.3748-2.582 2.2051-2.0915 1.6605-4.8004 3.498-7.0899 4.3535-2.4652 0.9214-4.203 1.3611-5.2988 1.5703-1.0959 0.2092-1.4551 0.18945-1.4551 0.18945l-4.3594-0.0957 3.6543 2.3789s2.2449 1.4617 4.6152 3.168c1.1852 0.85313 2.4012 1.7673 3.3633 2.5723 0.96209 0.80493 1.6922 1.633 1.7422 1.7266l0.9082 1.6992 1.1738-1.5273c4.7962-6.2425 12.898-11.436 15.338-12.836 1.0883-0.62443 3.7742-1.7375 6.3848-2.9707s5.1741-2.4844 6.5586-4.2148c2.1229-2.6531 2.3654-5.5818 2.332-8.5098 25.215-11.733 50.87-23.128 71.951-21.389h6e-3c12.825 1.0021 22.149 6.6655 28.006 14.578 5.8565 7.9126 8.2236 18.12 6.8711 28.195-2.705 20.15-20.1 39.783-54.504 39.328l-0.01-2e-3h-0.01c-14.184 0.036-28.185 1.2866-39.277 2.9141-43.785 6.4246-64.754 23.68-74.631 39.451-10.537 17.092-9.4392 26.419-7.9122 47.245-0.14517-15.894 5.4969-31.949 12.449-41.985 8.2477-11.626 22.694-24.35 48.002-31.049-17.638 9.875-29.032 25.941-35.902 42.816-8.0762 19.839-10.064 40.705-9.041 54.162 4e-3 0.0482-2e-3 0.11414 2e-3 0.16211l1.4687 18.838 1.0117-18.867c0.94487-17.632 6.2026-36.322 14.131-52.166 7.9255-15.839 18.538-28.809 29.959-35.129 24.396-12.643 44.445-12.86 73.883-14.428 31.671-0.80723 57.272-26.948 55-56.789-1.123-14.733-5.3303-24.347-10.895-31.316-5.3274-6.6729-11.817-10.875-17.869-15.031 3.0516-6.8114 7.501-17.707 10.99-27.979l-0.13086 0.39649-3.0723 9.2988 1.668 0.0469c88.724 2.494 167.49 46.428 167.49 46.428l14.021 7.8281-12.65-9.8906s-30.245-23.641-83.406-40.275c-52.138-16.314-82.953-14.287-82.953-14.287l-0.82617 0.0566c1.5131-4.4808 2.8272-8.7482 3.6797-12.41 79.562-32.004 178.84-27.308 178.84-27.308l33.553 1.6094-33.342-4.084s-0.0911-8e-3 -0.0918-8e-3c-0.16256-0.0199-18.153-2.2139-45.43-2.2461zm-78.211 28.318c-32.731 0.37314-54.443 4.2285-54.443 4.2285l-0.74609 0.13281-2.5547 8.2383 1.1875 0.36719 0.21484 1.2246c89.164-15.701 195.85 11.084 195.85 11.084l27.605 6.9453-26.896-9.3242s-52.283-18.145-104.21-21.836c-12.962-0.92131-25.098-1.1849-36.008-1.0606zm-146.63 45.016-1.0547 2.7734c-2.496 6.5683-5.395 9.7014-8.7598 11.67 0.25868-2.5588-0.65192-4.2076-0.63476-4.8398l0.0488-1.8008c3.3243-2.7462 6.8123-5.3261 10.4-7.8027zm-8.9727 3.5195c-0.44746 0.35057-0.89687 0.69938-1.3398 1.0547l2e-3 -0.10351c0.41162-0.3103 0.91226-0.63727 1.3379-0.95117z" color="#000000" color-rendering="auto" dominant-baseline="auto" filter="url(#b)" image-rendering="auto" opacity=".2" shape-rendering="auto" solid-color="#000000" style="font-feature-settings:normal;font-variant-alternates:normal;font-variant-caps:normal;font-variant-ligatures:normal;font-variant-numeric:normal;font-variant-position:normal;isolation:auto;mix-blend-mode:normal;shape-padding:0;text-decoration-color:#000000;text-decoration-line:none;text-decoration-style:solid;text-indent:0;text-orientation:mixed;text-transform:none;white-space:normal"/><g transform="matrix(1.4134 0 -.55446 .73189 210.77 -878.82)"><path d="m57.194 664.6 1.2e-5 1853.2h1.5343v-1853.2zm3.0691 0v1853.2h1.5348v-1853.2zm3.0691 0 5.31e-4 1853.2h1.5343l-2.3e-5 -1853.2zm3.0696 0 1.1e-5 1853.2h1.5348l1.2e-5 -1853.2zm3.0691 0v1853.2h1.5348v-1853.2zm3.0696 0 1.2e-5 1853.2h1.5342l1.1e-5 -1853.2zm3.0691 0v1853.2h1.5348l1.2e-5 -1853.2zm3.0696 0v1853.2h1.5343l-1.1e-5 -1853.2zm3.069 0 2.3e-5 1853.2h1.5348l-1.1e-5 -1853.2zm3.0691 0 1.1e-5 1853.2h1.5348v-1853.2zm3.0696 0 1.2e-5 1853.2h1.5348l-5.42e-4 -1853.2zm3.0691 0-1.2e-5 1853.2h1.5348v-1853.2zm3.0696 0-1.2e-5 1853.2h1.5343l-1.1e-5 -1853.2zm3.069 0 1.2e-5 1853.2h1.5348l-1.1e-5 -1853.2zm3.0691 0v1853.2h1.5348v-1853.2zm3.0696 0v1853.2h1.5348l-5.4e-4 -1853.2zm3.0691 0-1e-5 1853.2h1.5348l1e-5 -1853.2zm3.0696 0v1853.2h1.5343l-2e-5 -1853.2zm3.069 0 1e-5 1853.2h1.5348v-1853.2zm3.0691 0v1853.2h1.5348v-1853.2zm3.0696 0v1853.2h1.5343l-1e-5 -1853.2zm3.069 0 1e-5 1853.2h1.5348l1e-5 -1853.2zm3.0696 0-1e-5 1853.2h1.5343v-1853.2zm3.069 0 1e-5 1853.2h1.5348l-1e-5 -1853.2zm3.0691 0-1e-5 1853.2h1.5348v-1853.2zm3.0696 0-1e-5 1853.2h1.5348l-5.3e-4 -1853.2zm3.069 0 1e-5 1853.2h1.5348l-1e-5 -1853.2zm3.0696 0 1e-5 1853.2h1.5343v-1853.2zm3.069 0v1853.2h1.5348l-1e-5 -1853.2zm3.0691 0-1e-5 1853.2h1.5348l1e-5 -1853.2zm3.0696 0v1853.2h1.5348l-5.2e-4 -1853.2zm3.069 0 1e-5 1853.2h1.5348l-2e-5 -1853.2zm3.0696 0 1e-5 1853.2h1.5342v-1853.2zm3.0691 0v1853.2h1.5348v-1853.2zm3.069 0v1853.2h1.5348l1e-5 -1853.2zm3.0696 0v1853.2h1.5348l-5.1e-4 -1853.2zm3.069 0 1e-5 1853.2h1.5348l-1e-5 -1853.2zm3.0696 0 1e-5 1853.2h1.5342v-1853.2zm3.069 0v1853.2h1.5348v-1853.2zm3.0691 0 2e-5 1853.2h1.5348l-1e-5 -1853.2zm3.0696 0 1e-5 1853.2h1.5348l-5.3e-4 -1853.2zm3.069 0v1853.2h1.5348l-1e-5 -1853.2zm3.0696 0v1853.2h1.5343v-1853.2zm3.069 0v1853.2h1.5348l2e-5 -1853.2zm3.069 0 1e-5 1853.2h1.5348l-1e-5 -1853.2zm3.0696 0 1e-5 1853.2h1.5348l-5.5e-4 -1853.2zm3.0691 0v1853.2h1.5348v-1853.2zm3.0696 0 1e-5 1853.2h1.5342l1e-5 -1853.2zm3.0691 0v1853.2h1.5348l2e-5 -1853.2zm3.069 0 1e-5 1853.2h1.5348l-1e-5 -1853.2zm3.0696 0 1e-5 1853.2h1.5348l-5.4e-4 -1853.2zm3.0691 0-2e-5 1853.2h1.5348v-1853.2zm3.0696 0v1853.2h1.5343l1e-5 -1853.2zm3.0691 0-1e-5 1853.2h1.5348v-1853.2zm3.0691 0-2e-5 1853.2h1.5348l-2e-5 -1853.2zm3.0696 0 2e-5 1853.2h1.5348l-5.4e-4 -1853.2zm3.0691 0-1e-5 1853.2h1.5348v-1853.2zm3.0696 0-1e-5 1853.2h1.5343l-2e-5 -1853.2zm3.069 0 2e-5 1853.2h1.5348l1e-5 -1853.2zm3.0691 0-1e-5 1853.2h1.5348l1e-5 -1853.2zm3.0696 0v1853.2h1.5348l-5.3e-4 -1853.2zm3.069 0v1853.2h1.5348l2e-5 -1853.2zm3.0696 0v1853.2h1.5343l-1e-5 -1853.2zm3.069 0 2e-5 1853.2h1.5348l-2e-5 -1853.2zm3.0691 0v1853.2h1.5348l2e-5 -1853.2zm3.0696 0-1e-5 1853.2h1.5348l-5.4e-4 -1853.2zm3.069 0-1e-5 1853.2h1.5348v-1853.2zm3.0696 0-1e-5 1853.2h1.5343l-2e-5 -1853.2zm3.069 0 1e-5 1853.2h1.5348l-2e-5 -1853.2zm3.0691 0-1e-5 1853.2h1.5348v-1853.2zm3.0696 0-1e-5 1853.2h1.5348l-5.3e-4 -1853.2zm3.069 0v1853.2h1.5348l1e-5 -1853.2zm3.0696 0v1853.2h1.5343l-1e-5 -1853.2zm3.069 0 2e-5 1853.2h1.5348l-1e-5 -1853.2zm3.0691 0v1853.2h1.5348l2e-5 -1853.2zm3.0696 0v1853.2h1.5348l1e-5 -1853.2zm3.069 0 2e-5 1853.2h1.5348l-2e-5 -1853.2zm3.0696 0 2e-5 1853.2h1.5342l2e-5 -1853.2zm3.0691 0v1853.2h1.5348l1e-5 -1853.2zm3.069 0-1e-5 1853.2h1.5348v-1853.2zm3.0696 0-1e-5 1853.2h1.5348l-5.4e-4 -1853.2zm3.069 0 1e-5 1853.2h1.5348l-2e-5 -1853.2zm3.0696 0 1e-5 1853.2h1.5342v-1853.2zm3.0691 0-1e-5 1853.2h1.5348v-1853.2zm3.069 0-1e-5 1853.2h1.5348l1e-5 -1853.2zm3.0696 0v1853.2h1.5348l-5.3e-4 -1853.2zm3.069 0 2e-5 1853.2h1.5348l-1e-5 -1853.2zm3.0696 0 2e-5 1853.2h1.5342l2e-5 -1853.2zm3.0691 0v1853.2h1.5348l1e-5 -1853.2zm3.069 0v1853.2h1.5348l1e-5 -1853.2zm3.0696 0-2e-5 1853.2h1.5348l-5e-4 -1853.2zm3.0691 0v1853.2h1.5348l-2e-5 -1853.2zm3.0696 0 1e-5 1853.2h1.5343v-1853.2zm3.0691 0-1e-5 1853.2h1.5348v-1853.2zm3.069 0 1e-5 1853.2h1.5348l-2e-5 -1853.2zm3.0696 0 1e-5 1853.2h1.5348l1e-5 -1853.2zm3.0691 0-1e-5 1853.2h1.5348v-1853.2zm3.0696 0-1e-5 1853.2h1.5342l2e-5 -1853.2zm3.069 0v1853.2h1.5348l1e-5 -1853.2zm3.069 0 2e-5 1853.2h1.5348l-2e-5 -1853.2zm3.0696 0 2e-5 1853.2h1.5348l-2e-5 -1853.2zm3.0691 0v1853.2h1.5348l1e-5 -1853.2zm3.0696 0v1853.2h1.5342l1e-5 -1853.2zm3.069 0v1853.2h1.5348l1e-5 -1853.2zm3.069 0 2e-5 1853.2h1.5348l-2e-5 -1853.2zm3.0696 0 2e-5 1853.2h1.5348l-3e-5 -1853.2zm3.0691 0-1e-5 1853.2h1.5348v-1853.2zm3.0696 0-1e-5 1853.2h1.5343l-2e-5 -1853.2zm3.069 0-2e-5 1853.2h1.5348v-1853.2zm3.0691 0-1e-5 1853.2h1.5348l-2e-5 -1853.2zm3.0696 0 2e-5 1853.2h1.5348l-2e-5 -1853.2zm3.0691 0-2e-5 1853.2h1.5348l1e-5 -1853.2zm3.0696 0v1853.2h1.5343l-2e-5 -1853.2zm3.069 0 2e-5 1853.2h1.5348v-1853.2zm3.0691 0v1853.2h1.5348l1e-5 -1853.2zm3.0696 0v1853.2h1.5348l1e-5 -1853.2zm3.069 0v1853.2h1.5348v-1853.2zm3.0696 0v1853.2h1.5343l-2e-5 -1853.2zm3.069 0 1e-5 1853.2h1.5348l-2e-5 -1853.2zm3.0691 0v1853.2h1.5348l1e-5 -1853.2zm3.0696 0-1e-5 1853.2h1.5348v-1853.2zm3.069 0v1853.2h1.5348l-2e-5 -1853.2zm3.0696 0v1853.2h1.5343l-1e-5 -1853.2zm3.069 0 2e-5 1853.2h1.5348l-1e-5 -1853.2zm3.0691 0v1853.2h1.5348v-1853.2zm3.0696 0-1e-5 1853.2h1.5348v-1853.2zm3.069 0 1e-5 1853.2h1.5348v-1853.2zm3.0696 0 1e-5 1853.2h1.5343l1e-5 -1853.2zm3.0691 0-1e-5 1853.2h1.5348l-1e-5 -1853.2zm3.069 0v1853.2h1.5348v-1853.2zm3.0696 0v1853.2h1.5348l1e-5 -1853.2zm3.069 0 1e-5 1853.2h1.5348l-2e-5 -1853.2zm3.0696 0v1853.2h1.5343l1e-5 -1853.2zm3.0691 0-1e-5 1853.2h1.5348v-1853.2zm3.069 0v1853.2h1.5348v-1853.2zm3.0696 0v1853.2h1.5348v-1853.2zm3.069 0 1e-5 1853.2h1.5348l-1e-5 -1853.2zm3.0696 0 1e-5 1853.2h1.5343v-1853.2zm3.0691 0-1e-5 1853.2h1.5348l1e-5 -1853.2zm3.069 0 5.4e-4 1853.2h1.5342v-1853.2zm3.0696 0 1e-5 1853.2h1.5348v-1853.2zm3.069 0 1e-5 1853.2h1.5348l-1e-5 -1853.2zm3.0696 0 2e-5 1853.2h1.5343v-1853.2zm3.0691 0v1853.2h1.5348l1e-5 -1853.2zm3.069 0 1e-5 1853.2h1.5348l-2e-5 -1853.2zm3.0696 0 1e-5 1853.2h1.5348l-1e-5 -1853.2zm3.0691 0-1e-5 1853.2h1.5348l-2e-5 -1853.2zm3.0696 0 2e-5 1853.2h1.5342v-1853.2zm3.0691 0v1853.2h1.5348v-1853.2zm3.069 0v1853.2h1.5348l-1e-5 -1853.2zm3.0696 0v1853.2h1.5348l-1e-5 -1853.2zm3.0691 0-1e-5 1853.2h1.5348l1e-5 -1853.2zm3.0696 0-1e-5 1853.2h1.5342v-1853.2zm3.069 0 1e-5 1853.2h1.5348v-1853.2zm3.069 0 5.4e-4 1853.2h1.5343l-1e-5 -1853.2zm3.0696 0 2e-5 1853.2h1.5348v-1853.2zm3.0691 0v1853.2h1.5348l1e-5 -1853.2zm3.0696 0v1853.2h1.5343v-1853.2zm3.069 0v1853.2h1.5348l-1e-5 -1853.2zm3.069 0 5.4e-4 1853.2h1.5343l-2e-5 -1853.2zm3.0696 0 2e-5 1853.2h1.5348l-1e-5 -1853.2zm3.0691 0v1853.2h1.5348v-1853.2zm3.0696 0-1e-5 1853.2h1.5343l-1e-5 -1853.2zm3.069 0v1853.2h1.5348l-1e-5 -1853.2zm3.0691 0 5.2e-4 1853.2h1.5343l1e-5 -1853.2zm3.0696 0-1e-5 1853.2h1.5348l-2e-5 -1853.2zm3.069 0-1e-5 1853.2h1.5348v-1853.2zm3.0696 0v1853.2h1.5343l-1e-5 -1853.2zm3.069 0 2e-5 1853.2h1.5348v-1853.2zm3.0691 0 5.3e-4 1853.2h1.5343l1e-5 -1853.2zm3.0696 0-1e-5 1853.2h1.5348l1e-5 -1853.2zm3.069 0v1853.2h1.5348v-1853.2zm3.0696 0v1853.2h1.5343l-1e-5 -1853.2zm3.069 0 2e-5 1853.2h1.5348l-1e-5 -1853.2zm3.0691 0 5.3e-4 1853.2h1.5343v-1853.2zm3.0696 0-1e-5 1853.2h1.5348v-1853.2zm3.069 0v1853.2h1.5348l-1e-5 -1853.2zm3.0696 0v1853.2h1.5343l-1e-5 -1853.2zm3.069 0 3e-5 1853.2h1.5348l-2e-5 -1853.2zm3.0691 0 5.2e-4 1853.2h1.5343v-1853.2zm3.0696 0v1853.2h1.5348v-1853.2zm3.069 0 2e-5 1853.2h1.5348v-1853.2zm3.0696 0 1e-5 1853.2h1.5343l1e-5 -1853.2zm3.0691 0v1853.2h1.5348l-3e-5 -1853.2zm3.069 0 5.3e-4 1853.2h1.5343v-1853.2zm3.0696 0v1853.2h1.5348l1e-5 -1853.2zm3.069 0 2e-5 1853.2h1.5348l-1e-5 -1853.2zm3.0696 0 1e-5 1853.2h1.5343l1e-5 -1853.2zm3.0691 0-1e-5 1853.2h1.5348v-1853.2zm3.069 0 5.3e-4 1853.2h1.5343v-1853.2zm3.0696 0v1853.2h1.5348v-1853.2zm3.069 0 3e-5 1853.2h1.5348l-1e-5 -1853.2zm3.0696 0 1e-5 1853.2h1.5343v-1853.2zm3.0691 0-1e-5 1853.2h1.5348l1e-5 -1853.2zm3.069 0 5.5e-4 1853.2h1.5342v-1853.2zm3.0696 0 1e-5 1853.2h1.5348v-1853.2zm3.069 0 1e-5 1853.2h1.5348l-2e-5 -1853.2zm3.0696 0 1e-5 1853.2h1.5343v-1853.2zm3.0691 0v1853.2h1.5348l1e-5 -1853.2zm3.069 0 5.5e-4 1853.2h1.5342l-1e-5 -1853.2zm3.0696 0v1853.2h1.5348l-1e-5 -1853.2zm3.0691 0-1e-5 1853.2h1.5348v-1853.2zm3.0696 0-2e-5 1853.2h1.5343v-1853.2zm3.069 0v1853.2h1.5348v-1853.2zm3.069 0 5.4e-4 1853.2h1.5342l-1e-5 -1853.2zm3.0696 0 1e-5 1853.2h1.5348l-1e-5 -1853.2zm3.0691 0-1e-5 1853.2h1.5348l1e-5 -1853.2zm3.0696 0-1e-5 1853.2h1.5342v-1853.2zm3.069 0 1e-5 1853.2h1.5348v-1853.2zm3.069 0 5.4e-4 1853.2h1.5343l-2e-5 -1853.2zm3.0696 0 1e-5 1853.2h1.5348v-1853.2zm3.0691 0v1853.2h1.5348l1e-5 -1853.2zm3.0696 0v1853.2h1.5342v-1853.2zm3.069 0v1853.2h1.5348l-1e-5 -1853.2zm3.069 0 5.4e-4 1853.2h1.5343l-3e-5 -1853.2zm3.0696 0 1e-5 1853.2h1.5348l-1e-5 -1853.2zm3.0691 0v1853.2h1.5348v-1853.2zm3.0696 0-1e-5 1853.2h1.5343l-1e-5 -1853.2zm3.069 0v1853.2h1.5348l-1e-5 -1853.2zm3.0696 0 1e-5 1853.2h1.5343l1e-5 -1853.2zm3.0691 0-1e-5 1853.2h1.5348l-1e-5 -1853.2zm3.069 0 1e-5 1853.2h1.5348v-1853.2zm3.0696 0v1853.2h1.5348l-5.5e-4 -1853.2zm3.069 0 1e-5 1853.2h1.5348v-1853.2zm3.0696 0 1e-5 1853.2h1.5343l1e-5 -1853.2zm3.0691 0v1853.2h1.5348l2e-5 -1853.2zm3.069 0v1853.2h1.5348l-1e-5 -1853.2zm3.0696 0v1853.2h1.5348v-1853.2zm3.069 0 1e-5 1853.2h1.5348l-1e-5 -1853.2zm3.0696 0 1e-5 1853.2h1.5343v-1853.2zm3.0691 0-1e-5 1853.2h1.5348v-1853.2zm3.069 0v1853.2h1.5348v-1853.2zm3.0696 0v1853.2h1.5343l1e-5 -1853.2zm3.069 0 3e-5 1853.2h1.5348l-1e-5 -1853.2zm3.0691 0-1e-5 1853.2h1.5348v-1853.2zm3.0696 0v1853.2h1.5348v-1853.2zm3.069 0 1e-5 1853.2h1.5348v-1853.2zm3.0696 0 1e-5 1853.2h1.5343l1e-5 -1853.2zm3.0691 0-1e-5 1853.2h1.5348l2e-5 -1853.2zm3.0696 0-1e-5 1853.2h1.5343v-1853.2zm3.069 0v1853.2h1.5348v-1853.2zm3.069 0 1e-5 1853.2h1.5348l-1e-5 -1853.2zm3.0696 0 1e-5 1853.2h1.5348l-1e-5 -1853.2zm3.0691 0-1e-5 1853.2h1.5348v-1853.2zm3.0696 0-1e-5 1853.2h1.5343l-1e-5 -1853.2zm3.069 0v1853.2h1.5348v-1853.2zm3.069 0 3e-5 1853.2h1.5348l-1e-5 -1853.2zm3.0696 0 1e-5 1853.2h1.5348l-5.3e-4 -1853.2zm3.0691 0v1853.2h1.5348v-1853.2zm3.069 0 5.4e-4 1853.2h1.5343v-1853.2zm3.0696 0 1e-5 1853.2h1.5348v-1853.2zm3.069 0 1e-5 1853.2h1.5348l-2e-5 -1853.2zm3.0696 0 1e-5 1853.2h1.5343v-1853.2zm3.0691 0v1853.2h1.5348l1e-5 -1853.2zm3.069 0 1e-5 1853.2h1.5348l-1e-5 -1853.2zm3.0696 0v1853.2h1.5348l-1e-5 -1853.2zm3.0691 0-1e-5 1853.2h1.5348v-1853.2zm3.0696 0-1e-5 1853.2h1.5343v-1853.2zm3.069 0v1853.2h1.5348v-1853.2zm3.069 0 2e-5 1853.2h1.5348l-1e-5 -1853.2zm3.0696 0 1e-5 1853.2h1.5348l-5.3e-4 -1853.2zm3.0691 0-1e-5 1853.2h1.5348l2e-5 -1853.2zm3.069 0 5.4e-4 1853.2h1.5343v-1853.2zm3.0696 0 1e-5 1853.2h1.5348v-1853.2zm3.069 0 5.5e-4 1853.2h1.5343l-1e-5 -1853.2zm3.0696 0 1e-5 1853.2h1.5343v-1853.2zm3.0691 0v1853.2h1.5348l1e-5 -1853.2zm3.0696 0v1853.2h1.5343l-1e-5 -1853.2zm3.069 0v1853.2h1.5348l-1e-5 -1853.2zm3.0691 0-1e-5 1853.2h1.5348l2e-5 -1853.2zm3.0696 0 1e-5 1853.2h1.5348l-1e-5 -1853.2zm3.0691 0v1853.2h1.5348v-1853.2zm3.0696 0v1853.2h1.5342l-1e-5 -1853.2zm3.069 0 1e-5 1853.2h1.5348l-1e-5 -1853.2zm3.0691 0-1e-5 1853.2h1.5348l2e-5 -1853.2zm3.0696 0-2e-5 1853.2h1.5348l-5.3e-4 -1853.2zm3.069 0v1853.2h1.5348v-1853.2zm3.069 0 5.5e-4 1853.2h1.5343l-1e-5 -1853.2zm3.0696 0 1e-5 1853.2h1.5348v-1853.2zm3.0691 0 5.3e-4 1853.2h1.5343l1e-5 -1853.2zm3.0696 0v1853.2h1.5343v-1853.2zm3.069 0v1853.2h1.5348l-1e-5 -1853.2zm3.0696 0v1853.2h1.5343l-3e-5 -1853.2zm3.069 0 1e-5 1853.2h1.5348l-1e-5 -1853.2zm3.0691 0v1853.2h1.5348v-1853.2zm3.0696 0-2e-5 1853.2h1.5348v-1853.2zm3.069 0v1853.2h1.5348l-1e-5 -1853.2zm3.0696 0 1e-5 1853.2h1.5342l2e-5 -1853.2zm3.069 0 2e-5 1853.2h1.5348l-1e-5 -1853.2zm3.0691 0v1853.2h1.5348v-1853.2zm3.0696 0v1853.2h1.5348l1e-5 -1853.2zm3.069 0 2e-5 1853.2h1.5348l-1e-5 -1853.2zm3.0691 0 5.4e-4 1853.2h1.5342l1e-5 -1853.2zm3.0696 0v1853.2h1.5348l1e-5 -1853.2zm3.069 0 5.4e-4 1853.2h1.5342v-1853.2zm3.0696 0-2e-5 1853.2h1.5343l-3e-5 -1853.2zm3.069 0 2e-5 1853.2h1.5348l-2e-5 -1853.2zm3.0696 0 1e-5 1853.2h1.5343v-1853.2zm3.0691 0-2e-5 1853.2h1.5348v-1853.2zm3.069 0-1e-5 1853.2h1.5348v-1853.2zm3.0696 0-1e-5 1853.2h1.5348l1e-5 -1853.2zm3.069 0 2e-5 1853.2h1.5348l-2e-5 -1853.2zm3.0696 0 2e-5 1853.2h1.5342l1e-5 -1853.2zm3.0691 0v1853.2h1.5348l1e-5 -1853.2zm3.069 0 2e-5 1853.2h1.5348l1e-5 -1853.2zm3.0696 0v1853.2h1.5348l2e-5 -1853.2zm3.0691 0v1853.2h1.5348l1e-5 -1853.2zm3.0696 0 2e-5 1853.2h1.5342v-1853.2zm3.0691 0v1853.2h1.5348v-1853.2zm3.0696 0v1853.2h1.5343l-1e-4 -1853.2zm3.069 0 1e-4 1853.2h1.5347l-5e-4 -1853.2zm3.0691 0v1853.2h1.5348v-1853.2zm3.0696 0v1853.2h1.5342v-1853.2zm3.069 0v1853.2h1.5348v-1853.2zm3.0691 0v1853.2h1.5348v-1853.2zm3.0696 0v1853.2h1.5348v-1853.2zm3.069 0v1853.2h1.5349v-1853.2zm3.0696 0v1853.2h1.5342v-1853.2zm3.069 0v1853.2h1.5348v-1853.2zm3.0691 0v1853.2h1.5348v-1853.2zm3.0696 0v1853.2h1.5349l-2e-4 -1853.2zm3.0691 0v1853.2h1.5347v-1853.2zm3.0695 0v1853.2h1.5343v-1853.2zm3.0691 0v1853.2h1.5348v-1853.2zm3.0696 0v1853.2h1.5343v-1853.2zm3.069 0v1853.2h1.5348l-6e-4 -1853.2zm3.0691 0v1853.2h1.5348v-1853.2zm3.0696 0v1853.2h1.5348l-6e-4 -1853.2zm3.069 0 1e-4 1853.2h1.5348v-1853.2zm3.0691 0v1853.2h1.5347v-1853.2zm3.0696 0-1e-4 1853.2h1.5349v-1853.2zm3.069 0v1853.2h1.5348v-1853.2zm3.0695 0v1853.2h1.5349l-5e-4 -1853.2zm3.0691 0v1853.2h1.5348v-1853.2zm3.0691 0v1853.2h1.5348v-1853.2zm3.0696 0v1853.2h1.5348v-1853.2zm3.0691 0v1853.2h1.5347v-1853.2zm3.0691 0 4e-4 1853.2h1.5343l-1e-4 -1853.2zm3.0695 0v1853.2h1.5348v-1853.2zm3.069 0 6e-4 1853.2h1.5342l1e-4 -1853.2zm3.0697 0v1853.2h1.5347v-1853.2zm3.0689 0v1853.2h1.5348v-1853.2zm3.0697 0-1e-4 1853.2h1.5349v-1853.2zm3.069 0v1853.2h1.5348v-1853.2zm3.0691 0v1853.2h1.5347v-1853.2zm3.0695 0v1853.2h1.5348v-1853.2zm3.0691 0v1853.2h1.5348v-1853.2zm3.0696 0v1853.2h1.5347l-4e-4 -1853.2zm3.0691 0v1853.2h1.5347v-1853.2zm3.0689 0v1853.2h1.5349v-1853.2zm3.0697 0v1853.2h1.5348v-1853.2zm3.069 0 1e-4 1853.2h1.5348v-1853.2zm3.0691 0 5e-4 1853.2h1.5342v-1853.2zm3.0695 0v1853.2h1.5349v-1853.2zm3.0691 0 6e-4 1853.2h1.5342v-1853.2zm3.0696 0v1853.2h1.5347v-1853.2zm3.0691 0v1853.2h1.5347v-1853.2zm3.0695 0v1853.2h1.5349l-1e-4 -1853.2zm3.0691 0v1853.2h1.5348v-1853.2zm3.0691 0v1853.2h1.5348v-1853.2zm3.0695 0v1853.2h1.5348v-1853.2zm3.0691 0v1853.2h1.5348v-1853.2zm3.0696 0v1853.2h1.5348l-6e-4 -1853.2zm3.0691 0v1853.2h1.5347v-1853.2zm3.0689 0v1853.2h1.5348v-1853.2zm3.0696 0 1e-4 1853.2h1.5348v-1853.2zm3.0691 0v1853.2h1.5348v-1853.2zm3.0691 0 6e-4 1853.2h1.5342v-1853.2zm3.0695 0v1853.2h1.5348v-1853.2zm3.0691 0 5e-4 1853.2h1.5343v-1853.2zm3.0696 0v1853.2h1.5348v-1853.2zm3.0691 0v1853.2h1.5347v-1853.2zm3.0695 0v1853.2h1.5348v-1853.2zm3.0691 0v1853.2h1.5348v-1853.2zm3.0691 0-1e-4 1853.2h1.5349l-1e-4 -1853.2zm3.0696 0v1853.2h1.5347v-1853.2zm3.0689 0v1853.2h1.5348l1e-4 -1853.2zm3.0697 0v1853.2h1.5348l-6e-4 -1853.2zm3.069 0v1853.2h1.5347v-1853.2zm3.0691 0v1853.2h1.5347v-1853.2zm3.0695 0v1853.2h1.5348l1e-4 -1853.2zm3.0691 0v1853.2h1.5348v-1853.2zm3.0696 0v1853.2h1.5343v-1853.2zm3.069 0v1853.2h1.5348v-1853.2zm3.0696 0v1853.2h1.5343v-1853.2zm3.0691 0v1853.2h1.5348v-1853.2zm3.0691 0-1e-4 1853.2h1.5349v-1853.2zm3.0695 0v1853.2h1.5348v-1853.2zm3.069 0 1e-4 1853.2h1.5348v-1853.2zm3.0691 0v1853.2h1.5348v-1853.2zm3.0696 0v1853.2h1.5348v-1853.2zm3.069 0v1853.2h1.5348v-1853.2zm3.0696 0v1853.2h1.5348l1e-4 -1853.2zm3.0691 0v1853.2h1.5348v-1853.2zm3.0691 0v1853.2h1.5348v-1853.2zm3.0695 0v1853.2h1.5348v-1853.2zm3.0691 0v1853.2h1.5348v-1853.2zm3.0696 0v1853.2h1.5343v-1853.2zm3.0691 0v1853.2h1.5347v-1853.2zm3.0695 0v1853.2h1.5342v-1853.2zm3.0691 0v1853.2h1.5348v-1853.2zm3.069 0v1853.2h1.5349l-1e-4 -1853.2zm3.0695 0 2e-4 1853.2h1.5347v-1853.2zm3.0691 0v1853.2h1.5348v-1853.2zm3.0691 0v1853.2h1.5348v-1853.2zm3.0696 0v1853.2h1.5347v-1853.2zm3.0691 0v1853.2h1.5347v-1853.2zm3.0695 0v1853.2h1.5348v-1853.2zm3.0691 0v1853.2h1.5348v-1853.2zm3.069 0v1853.2h1.5349v-1853.2zm3.0696 0v1853.2h1.5348v-1853.2zm3.0691 0-1e-4 1853.2h1.5349l-1e-4 -1853.2zm3.0696 0v1853.2h1.5342v-1853.2zm3.069 0v1853.2h1.5349v-1853.2zm3.0696 0v1853.2h1.5342v-1853.2zm3.069 0v1853.2h1.5348v-1853.2zm3.0691 0v1853.2h1.5348v-1853.2zm3.0696 0v1853.2h1.5347l1e-4 -1853.2zm3.069 0v1853.2h1.5348v-1853.2zm3.0691 0 5e-4 1853.2h1.5343v-1853.2zm3.0696 0v1853.2h1.5348v-1853.2zm3.0691 0v1853.2h1.5348v-1853.2zm3.0695 0v1853.2h1.5348v-1853.2zm3.0691 0-1e-4 1853.2h1.5349v-1853.2zm3.069 0v1853.2h1.5348v-1853.2zm3.0695 0 2e-4 1853.2h1.5347v-1853.2zm3.0691 0v1853.2h1.5348v-1853.2zm3.0697 0-1e-4 1853.2h1.5349l-6e-4 -1853.2zm3.069 0v1853.2h1.5348v-1853.2zm3.0691 0v1853.2h1.5347v-1853.2zm3.0695 0v1853.2h1.5348v-1853.2zm3.0691 0v1853.2h1.5348v-1853.2zm3.069 0 6e-4 1853.2h1.5343v-1853.2zm3.0697 0v1853.2h1.5347v-1853.2zm3.0689 0 6e-4 1853.2h1.5343v-1853.2zm3.0697 0v1853.2h1.5348v-1853.2zm3.069 0v1853.2h1.5348v-1853.2zm3.0696 0v1853.2h1.5348v-1853.2zm3.069 0v1853.2h1.5349l-1e-4 -1853.2zm3.0691 0v1853.2h1.5348v-1853.2zm3.0696 0v1853.2h1.5347v-1853.2zm3.0691 0v1853.2h1.5347v-1853.2zm3.0695 0v1853.2h1.5348l-5e-4 -1853.2zm3.0691 0v1853.2h1.5348v-1853.2zm3.0691 0v1853.2h1.5348v-1853.2zm3.0695 0v1853.2h1.5348v-1853.2zm3.069 0v1853.2h1.5349v-1853.2zm3.0691 0 6e-4 1853.2h1.5342v-1853.2zm3.0697 0v1853.2h1.5348l-2e-4 -1853.2zm3.069 0 5e-4 1853.2h1.5342v-1853.2zm3.0695 0v1853.2h1.5349v-1853.2zm3.0691 0v1853.2h1.5348v-1853.2zm3.0695 0 2e-4 1853.2h1.5346v-1853.2zm3.0691 0v1853.2h1.5348v-1853.2zm3.0691 0v1853.2h1.5348v-1853.2zm3.0696 0v1853.2h1.5348v-1853.2zm3.0691 0v1853.2h1.5347v-1853.2zm3.0695 0v1853.2h1.5348l-5e-4 -1853.2zm3.0691 0v1853.2h1.5348v-1853.2zm3.069 0v1853.2h1.5348v-1853.2zm3.0697 0v1853.2h1.5347v-1853.2zm3.0689 0v1853.2h1.5348v-1853.2zm3.0696 0 1e-4 1853.2h1.5342v-1853.2zm3.0691 0v1853.2h1.5348v-1853.2zm3.0691 0 4e-4 1853.2h1.5343v-1853.2zm3.0695 0v1853.2h1.5348v-1853.2zm3.0691 0v1853.2h1.5348v-1853.2zm3.0696 0v1853.2h1.5347v-1853.2zm3.0691 0v1853.2h1.5347v-1853.2zm3.0689 0 1e-4 1853.2h1.5348v-1853.2zm3.0697 0v1853.2h1.5348v-1853.2zm3.0691 0-1e-4 1853.2h1.5349v-1853.2zm3.0695 0v1853.2h1.5348l-6e-4 -1853.2zm3.069 0v1853.2h1.5348l1e-4 -1853.2zm3.0691 0v1853.2h1.5348v-1853.2zm3.0696 0v1853.2h1.5348l-1e-4 -1853.2zm3.069 0v1853.2h1.5348v-1853.2zm3.0696 0v1853.2h1.5343v-1853.2zm3.0691 0v1853.2h1.5348v-1853.2zm3.0695 0v1853.2h1.5344v-1853.2zm3.0691 0v1853.2h1.5348v-1853.2zm3.0691 0v1853.2h1.5348v-1853.2zm3.0696 0v1853.2h1.5348v-1853.2zm3.069 0v1853.2h1.5348v-1853.2zm3.069 0v1853.2h1.5348v-1853.2zm3.0697 0v1853.2h1.5348v-1853.2zm3.069 0v1853.2h1.5348v-1853.2zm3.0695 0v1853.2h1.5349v-1853.2zm3.0691 0v1853.2h1.5348v-1853.2zm3.0691 0v1853.2h1.5348v-1853.2zm3.0696 0v1853.2h1.5347v-1853.2zm3.0691 0v1853.2h1.5347v-1853.2zm3.0695 0v1853.2h1.5343l-1e-4 -1853.2zm3.0691 0v1853.2h1.5348v-1853.2zm3.0696 0v1853.2h1.5343v-1853.2zm3.0691 0v1853.2h1.5347v-1853.2zm3.0689 0v1853.2h1.5348v-1853.2zm3.0697 0v1853.2h1.5348v-1853.2zm3.069 0v1853.2h1.5349l-2e-4 -1853.2zm3.0691 0 5e-4 1853.2h1.5342v-1853.2zm3.0695 0v1853.2h1.5348v-1853.2zm3.0691 0v1853.2h1.5348v-1853.2zm3.0696 0v1853.2h1.5347v-1853.2zm3.069 0v1853.2h1.5348v-1853.2zm3.0691 0-1e-4 1853.2h1.5349v-1853.2zm3.0696 0v1853.2h1.5348v-1853.2zm3.069 0 1e-4 1853.2h1.5348v-1853.2z" opacity=".02" stroke-width=".38366"/></g><path d="m335.18 154.86c16.44-0.0194 36.221 0.75069 57.432 3.2598 56.57 6.6911 85.486 21.906 85.486 21.906l0.91602 0.48242-0.3086 0.98633c-0.31597 1.0103-0.48873 4.3428-0.0586 8.3887 0.43014 4.0459 1.3823 8.9447 2.9902 13.689 1.608 4.7448 3.8791 9.3306 6.8789 12.779 2.998 3.4466 6.6632 5.7568 11.27 6.1816 24.125 0.12792 40.02 6.082 45.457 8.4531-0.19008-1.431-0.12618-3.2763 0.82032-5.5078l1.6465-3.8848 0.7207 4.1562c1.1367 6.5522 6.4552 9.8091 9.5449 11.225-0.227-1.523-0.1895-3.5792 0.7832-6.0254l1.1309-2.8457c-11.283-7.7716-23.778-14.309-37.316-19.812l-26.553-10.793 27.387 8.4551c0.036 0.0111 0.0656 0.026 0.10156 0.0371 5.6e-4 2.3e-4 1e-3 -2.3e-4 2e-3 0 20.118 6.2267 35.619 15.419 46.734 23.59l-0.01-0.36132 0.15039 0.46093c12.988 9.5692 19.863 17.689 19.863 17.689l1.543 1.8711-6.8418 0.44727-0.36719-0.27149-0.0977-0.0723-0.082-0.0898c-3.4479-3.7882-7.1511-7.3126-11.006-10.682 3.0409 7.5579 9.7394 11.3 10.551 11.725 0.34662-0.0605 1.2572-0.22434 2.666-0.4043 0.8262-0.10553 1.6987-0.19804 2.4805-0.23828 0.78179-0.0402 1.3904-0.0919 2.1133 0.14063l0.16601 0.0527 0.14453 0.0977c0.6531 0.43605 0.97145 1.1204 0.98829 1.1484v2e-3c0.13334 0.2232 1.6047 2.7251 3.2266 5.4043 0.81092 1.3396 1.6454 2.699 2.3262 3.7695 0.34037 0.53523 0.64263 0.99873 0.87891 1.3438 0.23627 0.34502 0.46743 0.61786 0.4082 0.55859 0.51772 0.51747 1.2748 1.3774 1.8633 2.3281 0.29453 0.47581 0.55472 0.96153 0.68555 1.5469s0.0549 1.5036-0.59961 2.0547l-0.0801 0.0684c0.0996 0.0951 0.15658 0.1557 0.27539 0.26562 0.63655 0.58893 1.5363 1.3748 2.582 2.2051 2.0915 1.6605 4.8004 3.498 7.0898 4.3535 2.4652 0.9214 4.203 1.3611 5.2988 1.5703s1.4551 0.18945 1.4551 0.18945l4.3594-0.0957-3.6543 2.3789s-2.2449 1.4617-4.6152 3.168c-1.1852 0.85313-2.4012 1.7673-3.3633 2.5723-0.96209 0.80493-1.6922 1.633-1.7422 1.7266l-0.90821 1.6992-1.1738-1.5273c-4.7962-6.2425-12.898-11.436-15.338-12.836-1.0883-0.62443-3.7742-1.7375-6.3848-2.9707s-5.1741-2.4844-6.5586-4.2148c-2.1229-2.6531-2.3654-5.5818-2.332-8.5098-25.215-11.733-50.87-23.128-71.951-21.389h-6e-3c-12.825 1.0021-22.149 6.6655-28.006 14.578-5.8565 7.9126-8.2236 18.12-6.8711 28.195 2.705 20.15 20.1 39.783 54.504 39.328l0.01-2e-3h0.01c14.184 0.036 28.185 1.2866 39.277 2.9141 43.785 6.4246 64.754 23.68 74.631 39.451 10.537 17.092 9.4392 26.419 7.9122 47.245 0.14517-15.894-5.4969-31.949-12.449-41.985-8.2477-11.626-22.694-24.35-48.002-31.049 17.638 9.875 29.032 25.941 35.902 42.816 8.0762 19.839 10.064 40.705 9.041 54.162-4e-3 0.0482 2e-3 0.11414-2e-3 0.16211l-1.4687 18.838-1.0117-18.867c-0.94487-17.632-6.2026-36.322-14.131-52.166-7.9255-15.839-18.538-28.809-29.959-35.129-24.396-12.643-44.445-12.86-73.883-14.428-31.671-0.80723-57.272-26.948-55-56.789 1.123-14.733 5.3303-24.347 10.895-31.316 5.3274-6.6729 11.817-10.875 17.869-15.031-3.0516-6.8114-7.501-17.707-10.99-27.979l0.13086 0.39649 3.0723 9.2988-1.668 0.0469c-88.724 2.494-167.49 46.428-167.49 46.428l-14.021 7.8281 12.65-9.8906s30.245-23.641 83.406-40.275c52.138-16.314 82.953-14.287 82.953-14.287l0.82617 0.0566c-1.5131-4.4808-2.8272-8.7482-3.6797-12.41-79.562-32.004-178.84-27.309-178.84-27.309l-33.553 1.6094 33.342-4.084s0.0911-8e-3 0.0918-8e-3c0.16254-0.0199 18.153-2.2139 45.43-2.2461zm78.211 28.318c32.731 0.37314 54.443 4.2285 54.443 4.2285l0.74609 0.13281 2.5547 8.2383-1.1875 0.36719-0.21484 1.2246c-89.164-15.701-195.85 11.084-195.85 11.084l-27.605 6.9453 26.896-9.3242s52.283-18.145 104.21-21.836c12.962-0.92131 25.098-1.1849 36.008-1.0606zm146.63 45.016 1.0547 2.7734c2.496 6.5683 5.395 9.7014 8.7598 11.67-0.25868-2.5588 0.65192-4.2076 0.63476-4.8398l-0.04884-1.8008c-3.3243-2.7462-6.8123-5.3261-10.4-7.8027zm8.9727 3.5195c0.44746 0.35057 0.89687 0.69938 1.3398 1.0547l-2e-3 -0.10351c-0.41162-0.3103-0.91226-0.63727-1.3379-0.95117z" color="#000000" color-rendering="auto" dominant-baseline="auto" image-rendering="auto" opacity=".1" shape-rendering="auto" solid-color="#000000" style="font-feature-settings:normal;font-variant-alternates:normal;font-variant-caps:normal;font-variant-ligatures:normal;font-variant-numeric:normal;font-variant-position:normal;isolation:auto;mix-blend-mode:normal;shape-padding:0;text-decoration-color:#000000;text-decoration-line:none;text-decoration-style:solid;text-indent:0;text-orientation:mixed;text-transform:none;white-space:normal"/><path d="m471.47 200.49s-30.522-2.031-82.5 14.233c-52.969 16.574-83.011 40.067-83.011 40.067s78.948-44.08 168.06-46.585zm113.85 47.927 3.9682-0.25882s-22.734-27.584-66.25-41.019c24.461 9.943 45.753 23.118 62.281 41.277zm6.494 11.461c0.61008-1.0578 2.5795 3.3603 4.0753 5.2164 0.0634 0.3706 0.1685 0.5968-0.69861 0.41837-0.073-0.38099-0.19879-0.49147-0.19879-0.49147s-2.0931-1.2454-2.7348-2.1288c-0.64223-0.88344-0.7562-2.4287-0.44313-3.0146zm53.402 131.3s4.8263-55.41-82.226-68.183c-11.034-1.6189-24.987-2.8648-39.1-2.9006-69.773 0.92251-72.316-80.474-19.74-84.582 21.789-1.7979 47.808 9.9562 73.245 21.802-0.0944 3.159 0.0362 5.9664 2.1115 8.5601 2.0748 2.5932 10.045 5.4224 12.592 6.8836 2.5467 1.4618 10.705 6.6488 15.705 13.156 1.0842-2.0281 10.139-7.9219 10.139-7.9219s-2.1691 0.0473-7.2152-1.8388c-5.0467-1.886-11.035-7.5922-11.177-7.9219-0.14141-0.33034-0.23559-0.84889 0.94385-1.0848 0.89547-0.75395-1.1326-3.2062-2.0287-4.1016-0.89546-0.89604-6.8854-11.081-7.0263-11.317-0.14141-0.23584-0.18887-0.47135-0.61295-0.75449-1.3208-0.42477-7.1215 0.61292-7.1215 0.61292s-8.9209-4.3814-11.996-13.828c0.0449 1.6546-1.5298 3.4612 0 7.2624-4.6513-1.9677-8.6466-5.3235-11.798-13.616-1.8756 4.7169 0 7.7159 0 7.7159s-10.953-3.0606-12.706-13.162c-1.9234 4.5345 0 7.2619 0 7.2619s-17.856-9.317-47.527-9.4522c-19.864-1.8221-24-36.764-22.159-42.649 0 0-28.653-15.1-85.054-21.771-56.401-6.6719-102.66-1.0054-102.66-1.0054s99.893-4.794 179.92 27.604c2.7204 12.167 10.904 32.433 15.312 42.174-12.612 8.7201-26.834 16.92-29.051 46.001-2.214 29.08 22.789 54.662 53.794 55.452 29.441 1.5682 49.784 1.791 74.44 14.574 23.534 13.013 42.83 52.664 44.741 88.325 2.0626-26.459-7.8668-83.357-54.202-100.64 64.761 11.333 70.457 59.341 70.457 59.341zm-175.27-195.04-2.3302-7.5161s-38.449-6.8277-90.146-3.1533c-51.697 3.6747-103.89 21.771-103.89 21.771s106.8-26.874 196.37-11.102" fill="#fff" stroke-width="2.4851"/></svg>
